<svg width="133" height="34" viewBox="0 0 133 34" fill="none" xmlns="http://www.w3.org/2000/svg">
<path d="M6.06118 11.166C4.89919 11.166 3.89423 11.3237 3.01489 11.6707C2.13555 12.0176 1.47604 12.4907 1.03637 13.1215C0.565292 13.7838 0.314051 14.5092 0.314051 15.3924C0.314051 16.0862 0.502482 16.717 0.816532 17.2217C1.13058 17.7263 1.60166 18.1994 2.16695 18.5779C2.73224 18.9564 3.48597 19.3348 4.42812 19.7449C5.5273 20.218 6.28102 20.5964 6.72069 20.8803C7.16036 21.1642 7.47441 21.4796 7.69425 21.795C7.91408 22.1419 8.0083 22.5835 8.0083 23.1196C8.0083 23.5927 7.91408 24.0027 7.75706 24.3181C7.60003 24.6335 7.3802 24.8859 7.09755 25.0751C6.81491 25.2643 6.50086 25.3905 6.1554 25.4851C5.74713 25.5167 5.37027 25.5482 5.02482 25.5482C4.05126 25.5482 3.32894 25.3274 2.76365 24.8859C2.22976 24.4443 1.79009 23.7504 1.53885 22.7727H0V26.0844C0.785127 26.3052 1.57025 26.4629 2.38679 26.589C3.20332 26.7152 4.05126 26.7783 4.8992 26.7783C5.71573 26.7783 6.46945 26.7152 7.19177 26.5259C7.88268 26.3682 8.47938 26.1159 8.98186 25.7374C9.48434 25.3905 9.89261 24.9174 10.1438 24.3497C10.4265 23.782 10.5521 23.0881 10.5521 22.2365C10.5521 21.5111 10.3951 20.9118 10.0496 20.3757C9.73558 19.871 9.2645 19.3979 8.69921 19.0194C8.13392 18.641 7.31739 18.1994 6.24961 17.7263C5.21325 17.2848 4.49093 16.9063 4.08266 16.6224C3.6744 16.3386 3.36035 16.0547 3.17191 15.7393C2.98348 15.4239 2.88927 15.0139 2.88927 14.5408C2.88927 13.8469 3.14051 13.3107 3.61159 12.9322C4.11407 12.5222 4.77357 12.333 5.59011 12.333C6.1554 12.333 6.62648 12.3961 7.03474 12.5538C7.4116 12.7115 7.78846 12.9638 8.07111 13.3107C8.38516 13.6892 8.6364 14.1623 8.88764 14.7931H10.5835V11.6707C9.60996 11.4814 8.6364 11.3237 8.0083 11.2606C7.3802 11.1976 6.72069 11.166 6.06118 11.166Z" fill="black"/>
<path d="M25.2505 18.7671C25.2191 17.3478 25.0934 16.1809 24.8422 15.2662C24.591 14.3831 24.2455 13.6261 23.8058 13.0584C23.3662 12.4592 22.7695 12.0176 22.0157 11.6707C21.262 11.3237 20.3827 11.166 19.3149 11.166C17.9645 11.166 16.7711 11.4814 15.7347 12.1438C14.6984 12.8061 13.8818 13.7207 13.3479 14.9193C12.7826 16.1178 12.5 17.5055 12.5 19.0825C12.5 21.6373 13.0653 23.5297 14.1645 24.8543C15.2636 26.1475 16.8967 26.8098 19.0637 26.8098C19.8802 26.8098 20.6025 26.6836 21.2934 26.4629C21.9529 26.2421 22.581 25.9267 23.1463 25.5167C23.7116 25.1066 24.3397 24.5705 24.9992 23.8451L24.0257 22.8042C23.3348 23.5297 22.6438 24.0658 21.9843 24.3812C21.2934 24.6966 20.5083 24.8543 19.6604 24.8543C18.6554 24.8543 17.8075 24.602 17.1794 24.1289C16.5513 23.6558 16.0802 22.9935 15.7975 22.1419C15.5149 21.2903 15.3893 20.2495 15.3893 19.0194V18.7356H25.2505V18.7671ZM16.5827 13.7207C17.2422 12.8376 18.0901 12.4276 19.1579 12.4276C19.8802 12.4276 20.4455 12.6169 20.8852 12.9953C21.3248 13.3738 21.6703 13.9415 21.8901 14.6669C22.11 15.3924 22.267 16.307 22.3298 17.4425H15.4207C15.5463 15.8339 15.9232 14.6039 16.5827 13.7207Z" fill="black"/>
<path d="M36.0519 24.4758C35.4238 24.7597 34.7643 24.9174 34.0419 24.9174C33.2882 24.9174 32.6601 24.7597 32.1576 24.4758C31.6551 24.192 31.2469 23.782 30.9328 23.2458C30.6188 22.7096 30.3989 22.0788 30.2733 21.3534C30.1477 20.5964 30.0849 19.7764 30.0849 18.8933C30.0849 17.5055 30.2419 16.307 30.5874 15.3293C30.9328 14.3515 31.3725 13.6261 31.9378 13.153C32.5031 12.6799 33.1626 12.4276 33.8849 12.4276C34.3874 12.4276 34.8271 12.5222 35.1725 12.6799C35.518 12.8376 35.832 13.1215 36.0833 13.5C36.3345 13.91 36.5543 14.4462 36.7428 15.1085H38.7527V11.7968C38.0304 11.576 37.2767 11.4183 36.5543 11.3237C35.832 11.2291 35.0155 11.166 34.1676 11.166C32.7857 11.166 31.5609 11.4814 30.4932 12.1438C29.4254 12.8061 28.6089 13.7207 28.0122 14.9193C27.4155 16.1178 27.1328 17.5055 27.1328 19.0825C27.1328 21.5742 27.6667 23.4981 28.7031 24.8228C29.7394 26.1475 31.2783 26.8098 33.2568 26.8098C33.7907 26.8098 34.2932 26.7467 34.7328 26.6521C35.2039 26.5575 35.6436 26.3998 36.1147 26.179C36.5857 25.9582 37.0254 25.7059 37.4337 25.359C37.8419 25.0436 38.313 24.5705 38.8469 24.0027L37.9362 22.9619C37.3395 23.6874 36.68 24.192 36.0519 24.4758Z" fill="black"/>
<path d="M48.5858 11.513C48.0205 11.7337 47.4866 12.0491 46.9841 12.4592C46.4817 12.8692 45.9478 13.4053 45.3825 14.1308L45.1626 14.0677L45.3511 11.2922H44.3775L40.7031 11.4499V12.2699C41.1742 12.3645 41.5511 12.4592 41.8023 12.5853C42.0535 12.7115 42.242 12.9007 42.3676 13.153C42.4932 13.4053 42.556 13.7207 42.5874 14.1308C42.6188 14.5408 42.6188 15.077 42.6188 15.7708V22.6781C42.6188 23.4035 42.5874 24.2551 42.5246 24.602C42.4618 24.9489 42.3676 25.2013 42.242 25.3905C42.1164 25.5482 41.9593 25.7059 41.8023 25.8005C41.6139 25.8951 41.3312 26.0213 40.9544 26.1475V26.936H47.2982V26.1475C46.7643 26.0528 46.356 25.9267 46.1048 25.7374C45.8222 25.5797 45.6337 25.2959 45.5395 24.9489C45.4139 24.5705 45.3511 23.6243 45.3511 22.6781V17.064C45.3511 16.5593 45.4139 16.1178 45.5395 15.7393C45.6651 15.3608 45.9164 14.9823 46.2618 14.5408C46.6073 14.1308 46.9527 13.7838 47.3296 13.563C47.7065 13.3423 48.0833 13.2161 48.4602 13.2161C48.9627 13.2161 49.3395 13.3423 49.6222 13.5946C49.9048 13.8469 50.1875 14.2569 50.4387 14.8246H52.2288V11.2606C51.7263 11.1976 51.1924 11.166 50.5643 11.166C49.8106 11.166 49.1511 11.2922 48.5858 11.513Z" fill="black"/>
<path d="M66.8305 18.7671C66.7991 17.3478 66.6735 16.1809 66.4223 15.2662C66.171 14.3831 65.8256 13.6261 65.3859 13.0584C64.9462 12.4592 64.3495 12.0176 63.5958 11.6707C62.8421 11.3237 61.9628 11.166 60.895 11.166C59.5446 11.166 58.3512 11.4814 57.3148 12.1438C56.2784 12.8061 55.4619 13.7207 54.928 14.9193C54.3627 16.1178 54.0801 17.5055 54.0801 19.0825C54.0801 21.6373 54.6454 23.5297 55.7445 24.8543C56.8437 26.1475 58.4768 26.8098 60.6437 26.8098C61.4603 26.8098 62.1826 26.6836 62.8735 26.4629C63.533 26.2421 64.1611 25.9267 64.7264 25.5167C65.2917 25.1066 65.9198 24.5705 66.5793 23.8451L65.6057 22.8042C64.9148 23.5297 64.2239 24.0658 63.5644 24.3812C62.8735 24.6966 62.0884 24.8543 61.2404 24.8543C60.2355 24.8543 59.3875 24.602 58.7594 24.1289C58.1313 23.6558 57.6603 22.9935 57.3776 22.1419C57.095 21.2903 56.9693 20.2495 56.9693 19.0194V18.7356H66.8305V18.7671ZM58.1313 13.7207C58.7908 12.8376 59.6388 12.4276 60.7066 12.4276C61.4289 12.4276 61.9942 12.6169 62.4338 12.9953C62.8735 13.3738 63.219 13.9415 63.4388 14.6669C63.6586 15.3924 63.8157 16.307 63.8785 17.4425H57.0008C57.095 15.8339 57.4718 14.6039 58.1313 13.7207Z" fill="black"/>
<path d="M77.4437 24.6317C77.0668 24.821 76.6899 24.884 76.2503 24.884C75.7792 24.884 75.4023 24.821 75.1197 24.6633C74.837 24.5056 74.5544 24.2848 74.3346 23.9379C74.1147 23.5909 73.9577 23.1178 73.8635 22.5186C73.7693 21.9193 73.7379 21.0993 73.7379 20.09V12.8358H78.8255V11.2273H73.7379V7.53711H71.5081C71.3825 8.48331 71.2883 9.24026 71.1626 9.71336C71.0684 10.218 70.9114 10.4388 70.723 10.7542C70.5345 11.1011 70.2833 11.3534 69.9693 11.5742C69.6552 11.795 69.2155 11.9212 68.6816 12.0158V12.8358H71.0056V21.7931C71.0056 23.4963 71.3511 24.7579 72.0106 25.5779C72.6701 26.398 73.6751 26.7764 75.0255 26.7764C75.7478 26.7764 76.4387 26.6187 77.0982 26.2718C77.7577 25.9564 78.48 25.4202 79.2023 24.6948L78.48 23.8432C78.166 24.1902 77.8205 24.4425 77.4437 24.6317Z" fill="black"/>
<path d="M116.733 18.7671C116.701 17.3478 116.576 16.1809 116.325 15.2662C116.073 14.3831 115.728 13.6261 115.288 13.0584C114.849 12.4592 114.252 12.0176 113.498 11.6707C112.744 11.3237 111.865 11.166 110.797 11.166C109.447 11.166 108.254 11.4814 107.217 12.1438C106.181 12.8061 105.364 13.7207 104.83 14.9193C104.265 16.1178 103.982 17.5055 103.982 19.0825C103.982 21.6373 104.548 23.5297 105.647 24.8543C106.746 26.1475 108.379 26.8098 110.546 26.8098C111.363 26.8098 112.085 26.6836 112.776 26.4629C113.435 26.2421 114.063 25.9267 114.629 25.5167C115.194 25.1066 115.822 24.5705 116.482 23.8451L115.508 22.8042C114.817 23.5297 114.126 24.0658 113.467 24.3812C112.776 24.6966 111.991 24.8543 111.143 24.8543C110.138 24.8543 109.29 24.602 108.662 24.1289C108.034 23.6558 107.563 22.9935 107.28 22.1419C106.997 21.2903 106.872 20.2495 106.872 19.0194V18.7356H116.733V18.7671ZM108.034 13.7207C108.693 12.8376 109.541 12.4276 110.609 12.4276C111.331 12.4276 111.897 12.6169 112.336 12.9953C112.776 13.3738 113.121 13.9415 113.341 14.6669C113.561 15.3924 113.718 16.307 113.781 17.4425H106.903C106.997 15.8339 107.374 14.6039 108.034 13.7207Z" fill="black"/>
<path d="M110.012 0H106.903L92.3942 12.5844L92.5198 11.9536C92.8338 10.4397 93.2107 8.95733 93.5561 7.47495C93.9016 6.02412 94.2785 4.5102 94.6867 2.99629H91.2322L86.1445 26.8404H89.5991C89.8189 25.4527 90.133 23.7811 90.3842 22.3618C90.6355 20.8794 90.9495 19.397 91.2636 17.8831L91.6404 16.1484L98.5181 26.8404H102.004L94.4355 14.603L110.012 0Z" fill="black"/>
<path d="M131.085 11.3867L128.352 17.5685L125.84 23.8134L123.045 15.6761C123.045 15.6446 123.014 15.6131 123.014 15.5815L121.475 11.3867H118.68L119.653 14.0676C119.747 14.3199 119.873 14.6038 119.999 14.9507L121.192 18.2624L124.395 27.1882C123.956 28.1659 123.547 28.9544 123.171 29.5852C122.794 30.216 122.48 30.6891 122.228 30.973C121.946 31.2884 121.695 31.4776 121.443 31.6038C121.255 31.6984 121.066 31.7615 120.847 31.7615H120.376C120.124 31.7299 119.936 31.6353 119.779 31.5092C119.59 31.3515 119.433 30.8153 119.308 30.3737H117.895V31.7299V33.78C118.617 33.9062 119.276 34.0008 119.842 34.0008C120.752 34.0008 121.538 33.78 122.166 33.37C122.825 32.96 123.422 32.3292 123.956 31.4776C124.49 30.6576 125.055 29.5537 125.652 28.229L129.514 19.3032L131.367 15.0138C131.587 14.5407 131.776 14.1307 131.933 13.8153L133 11.3867H131.085V11.3867Z" fill="black"/>
</svg>
